# This file uses centimeters as units for non-parametric coordinates.

mtllib Tutorial.mtl
g default
v -11.389767 -0.500000 11.389767
v 11.389767 -0.500000 11.389767
v -11.389767 0.000000 11.389767
v 11.389767 0.000000 11.389767
v -11.389767 0.000000 -11.389767
v 11.389767 0.000000 -11.389767
v -11.389767 -0.500000 -11.389767
v 11.389767 -0.500000 -11.389767
vt 0.000000 0.000000
vt 1.000000 0.000000
vt 1.000000 0.000000
vt 0.000000 0.000000
vt 1.000000 1.000000
vt 0.000000 1.000000
vt 1.000000 1.000000
vt 0.000000 1.000000
vn 0.000000 0.000000 1.000000
vn 0.000000 0.000000 1.000000
vn 0.000000 0.000000 1.000000
vn 0.000000 0.000000 1.000000
vn 0.000000 1.000000 0.000000
vn 0.000000 1.000000 0.000000
vn 0.000000 1.000000 0.000000
vn 0.000000 1.000000 0.000000
vn 0.000000 0.000000 -1.000000
vn 0.000000 0.000000 -1.000000
vn 0.000000 0.000000 -1.000000
vn 0.000000 0.000000 -1.000000
vn 0.000000 -1.000000 0.000000
vn 0.000000 -1.000000 0.000000
vn 0.000000 -1.000000 0.000000
vn 0.000000 -1.000000 0.000000
vn 1.000000 0.000000 0.000000
vn 1.000000 0.000000 0.000000
vn 1.000000 0.000000 0.000000
vn 1.000000 0.000000 0.000000
vn -1.000000 0.000000 0.000000
vn -1.000000 0.000000 0.000000
vn -1.000000 0.000000 0.000000
vn -1.000000 0.000000 0.000000
s off
g initialShadingGroup pCube1
f 1/1/1 2/2/2 4/3/3 3/4/4
f 3/4/5 4/3/6 6/5/7 5/6/8
f 5/6/9 6/5/10 8/7/11 7/8/12
f 7/8/13 8/7/14 2/2/15 1/1/16
f 2/2/17 8/7/18 6/5/19 4/3/20
f 7/8/21 1/1/22 3/4/23 5/6/24
g default
v -12.000000 -1.000000 -10.999992
v 12.000000 -1.000000 -10.999992
v -12.000000 -1.000000 -12.000000
v 12.000000 -1.000000 -12.000000
v -12.000000 2.346130 -10.999992
v 12.000000 2.346130 -10.999992
v 12.000000 2.346130 -12.000000
v -12.000000 2.346130 -12.000000
vt 0.339728 0.001992
vt 0.381229 0.001992
vt 0.381229 0.140859
vt 0.339728 0.140859
vt 0.387072 0.001992
vt 0.428573 0.001992
vt 0.428573 0.140859
vt 0.387072 0.140859
vt 0.292384 0.998008
vt 0.292384 0.001992
vt 0.333885 0.001992
vt 0.333885 0.998008
vt 0.000855 0.998008
vt 0.000855 0.001992
vt 0.139722 0.001992
vt 0.139722 0.998008
vt 0.146711 0.998008
vt 0.146711 0.001992
vt 0.285577 0.001992
vt 0.285577 0.998008
vn 0.000000 0.000000 1.000000
vn 0.000000 0.000000 1.000000
vn 0.000000 0.000000 1.000000
vn 0.000000 0.000000 1.000000
vn 0.000000 0.000000 -1.000000
vn 0.000000 0.000000 -1.000000
vn 0.000000 0.000000 -1.000000
vn 0.000000 0.000000 -1.000000
vn 0.000000 -1.000000 0.000000
vn 0.000000 -1.000000 0.000000
vn 0.000000 -1.000000 0.000000
vn 0.000000 -1.000000 0.000000
vn 1.000000 0.000000 0.000000
vn 1.000000 0.000000 0.000000
vn 1.000000 0.000000 0.000000
vn 1.000000 0.000000 0.000000
vn -1.000000 0.000000 0.000000
vn -1.000000 0.000000 0.000000
vn -1.000000 0.000000 0.000000
vn -1.000000 0.000000 0.000000
s off
g initialShadingGroup polySurface3 pCube2
f 9/21/25 10/22/26 14/23/27 13/24/28
f 16/25/29 15/26/30 12/27/31 11/28/32
f 11/17/33 12/18/34 10/19/35 9/20/36
f 10/9/37 12/10/38 15/11/39 14/12/40
f 11/13/41 9/14/42 13/15/43 16/16/44
g default
v -12.000000 2.346130 -10.999992
v 12.000000 2.346130 -10.999992
v -12.000000 2.346130 -12.000000
v 12.000000 2.346130 -12.000000
vt 0.000000 0.958333
vt 1.000000 0.958333
vt 1.000000 1.000000
vt 0.000000 1.000000
vn 0.000000 1.000000 0.000000
vn 0.000000 1.000000 0.000000
vn 0.000000 1.000000 0.000000
vn 0.000000 1.000000 0.000000
s off
g initialShadingGroup pCube2 polySurface4
f 17/29/45 18/30/46 20/31/47 19/32/48
g default
v 10.999992 -1.000000 -11.000000
v 10.999992 -1.000000 11.000000
v 12.000000 -1.000000 -11.000000
v 12.000000 -1.000000 11.000000
v 10.999992 2.346130 -11.000000
v 10.999992 2.346129 11.000000
v 12.000000 2.346129 11.000000
v 12.000000 2.346130 -11.000000
vt 0.375000 0.000000
vt 0.625000 0.000000
vt 0.625000 0.250000
vt 0.375000 0.250000
vt 0.625000 0.750000
vt 0.375000 0.750000
vt 0.625000 1.000000
vt 0.375000 1.000000
vt 0.875000 0.000000
vt 0.875000 0.250000
vt 0.125000 0.000000
vt 0.125000 0.250000
vt 0.151794 0.001992
vt 0.151794 0.998008
vt 0.000303 0.998008
vt 0.000303 0.001992
vn -1.000000 0.000000 0.000000
vn -1.000000 0.000000 0.000000
vn -1.000000 0.000000 0.000000
vn -1.000000 0.000000 0.000000
vn 1.000000 0.000000 0.000000
vn 1.000000 0.000000 0.000000
vn 1.000000 0.000000 0.000000
vn 1.000000 0.000000 0.000000
vn 0.000000 -1.000000 0.000000
vn 0.000000 -1.000000 0.000000
vn 0.000000 -1.000000 0.000000
vn 0.000000 -1.000000 0.000000
vn 0.000000 0.000000 1.000000
vn 0.000000 0.000000 1.000000
vn 0.000000 0.000000 1.000000
vn 0.000000 0.000000 1.000000
vn 0.000000 0.000000 -1.000000
vn 0.000000 0.000000 -1.000000
vn 0.000000 0.000000 -1.000000
vn 0.000000 0.000000 -1.000000
s off
g initialShadingGroup polySurface1 pCube3
f 21/33/49 22/34/50 26/35/51 25/36/52
f 28/45/53 27/46/54 24/47/55 23/48/56
f 23/38/57 24/37/58 22/39/59 21/40/60
f 22/34/61 24/41/62 27/42/63 26/35/64
f 23/43/65 21/33/66 25/36/67 28/44/68
g default
v 10.999992 2.346129 -11.000000
v 10.999992 2.346128 11.000000
v 12.000000 2.346129 -11.000000
v 12.000000 2.346128 11.000000
vt 0.958333 0.958333
vt 0.958333 0.041667
vt 1.000000 0.041667
vt 1.000000 0.958333
vn 0.000000 1.000000 0.000000
vn 0.000000 1.000000 0.000000
vn 0.000000 1.000000 0.000000
vn 0.000000 1.000000 0.000000
s off
g initialShadingGroup pCube3 polySurface2
f 29/49/69 30/50/70 32/51/71 31/52/72
g default
v -10.999992 -1.000000 11.000000
v -10.999992 -1.000000 -11.000000
v -12.000000 -1.000000 11.000000
v -12.000000 -1.000000 -11.000000
v -10.999992 2.346130 11.000000
v -10.999992 2.346129 -11.000000
v -12.000000 2.346129 -11.000000
v -12.000000 2.346130 11.000000
vt 0.000926 0.998008
vt 0.000926 0.001992
vt 0.152417 0.001992
vt 0.152417 0.998008
vt 0.310092 0.001992
vt 0.310092 0.998008
vt 0.158601 0.998008
vt 0.158601 0.001992
vt 0.316093 0.998008
vt 0.316093 0.001992
vt 0.361367 0.001992
vt 0.361367 0.998008
vt 0.412643 0.153483
vt 0.367369 0.153483
vt 0.367369 0.001992
vt 0.412643 0.001992
vt 0.418646 0.001992
vt 0.463919 0.001992
vt 0.463919 0.153483
vt 0.418646 0.153483
vn 1.000000 0.000000 0.000000
vn 1.000000 0.000000 0.000000
vn 1.000000 0.000000 0.000000
vn 1.000000 0.000000 0.000000
vn -1.000000 0.000000 0.000000
vn -1.000000 0.000000 0.000000
vn -1.000000 0.000000 0.000000
vn -1.000000 0.000000 0.000000
vn 0.000000 -1.000000 0.000000
vn 0.000000 -1.000000 0.000000
vn 0.000000 -1.000000 0.000000
vn 0.000000 -1.000000 0.000000
vn 0.000000 0.000000 -1.000000
vn 0.000000 0.000000 -1.000000
vn 0.000000 0.000000 -1.000000
vn 0.000000 0.000000 -1.000000
vn 0.000000 0.000000 1.000000
vn 0.000000 0.000000 1.000000
vn 0.000000 0.000000 1.000000
vn 0.000000 0.000000 1.000000
s off
g initialShadingGroup polySurface5 pCube4
f 33/53/73 34/54/74 38/55/75 37/56/76
f 40/57/77 39/58/78 36/59/79 35/60/80
f 35/61/81 36/62/82 34/63/83 33/64/84
f 34/65/85 36/66/86 39/67/87 38/68/88
f 35/69/89 33/70/90 37/71/91 40/72/92
g default
v -10.999992 2.346130 11.000000
v -10.999992 2.346129 -11.000000
v -12.000000 2.346130 11.000000
v -12.000000 2.346129 -11.000000
vt 0.041667 0.041667
vt 0.041667 0.958333
vt 0.000000 0.958333
vt 0.000000 0.041667
vn 0.000000 1.000000 -0.000000
vn 0.000000 1.000000 -0.000000
vn 0.000000 1.000000 -0.000000
vn 0.000000 1.000000 -0.000000
s off
g initialShadingGroup pCube4 polySurface6
f 41/73/93 42/74/94 44/75/95 43/76/96
g default
v 12.000000 -1.000000 10.999992
v -12.000000 -1.000000 10.999992
v 12.000000 -1.000000 12.000000
v -12.000000 -1.000000 12.000000
v 12.000000 2.346129 10.999992
v -12.000000 2.346129 10.999992
v -12.000000 2.346130 12.000000
v 12.000000 2.346130 12.000000
vt 0.339728 0.001992
vt 0.381229 0.001992
vt 0.381229 0.140859
vt 0.339728 0.140859
vt 0.387072 0.001992
vt 0.428573 0.001992
vt 0.428573 0.140859
vt 0.387072 0.140859
vt 0.333885 0.001992
vt 0.333885 0.998008
vt 0.292384 0.998008
vt 0.292384 0.001992
vt 0.139722 0.001992
vt 0.139722 0.998008
vt 0.000855 0.998008
vt 0.000855 0.001992
vt 0.285577 0.001992
vt 0.285577 0.998008
vt 0.146711 0.998008
vt 0.146711 0.001992
vn 0.000000 0.000000 -1.000000
vn 0.000000 0.000000 -1.000000
vn 0.000000 0.000000 -1.000000
vn 0.000000 0.000000 -1.000000
vn 0.000000 0.000000 1.000000
vn 0.000000 0.000000 1.000000
vn 0.000000 0.000000 1.000000
vn 0.000000 0.000000 1.000000
vn 0.000000 -1.000000 0.000000
vn 0.000000 -1.000000 0.000000
vn 0.000000 -1.000000 0.000000
vn 0.000000 -1.000000 0.000000
vn -1.000000 0.000000 0.000000
vn -1.000000 0.000000 0.000000
vn -1.000000 0.000000 0.000000
vn -1.000000 0.000000 0.000000
vn 1.000000 0.000000 0.000000
vn 1.000000 0.000000 0.000000
vn 1.000000 0.000000 0.000000
vn 1.000000 0.000000 0.000000
s off
g initialShadingGroup polySurface7 pCube5
f 45/89/97 46/90/98 50/91/99 49/92/100
f 52/93/101 51/94/102 48/95/103 47/96/104
f 47/85/105 48/86/106 46/87/107 45/88/108
f 46/77/109 48/78/110 51/79/111 50/80/112
f 47/81/113 45/82/114 49/83/115 52/84/116
g default
v 12.000000 2.346129 10.999992
v -12.000000 2.346129 10.999992
v 12.000000 2.346130 12.000000
v -12.000000 2.346130 12.000000
vt 1.000000 0.041667
vt 0.000000 0.041667
vt 0.000000 0.000000
vt 1.000000 0.000000
vn 0.000000 1.000000 -0.000001
vn 0.000000 1.000000 -0.000001
vn 0.000000 1.000000 -0.000001
vn 0.000000 1.000000 -0.000001
s off
g initialShadingGroup pCube5 polySurface8
f 53/97/117 54/98/118 56/99/119 55/100/120
